<svg id="Layer_1" data-name="Layer 1" xmlns="http://www.w3.org/2000/svg" xmlns:xlink="http://www.w3.org/1999/xlink" viewBox="0 0 555.63 589.44"><defs><style>.cls-1{fill:url(#linear-gradient);}.cls-2{fill:none;stroke-miterlimit:10;stroke:url(#linear-gradient-2);}</style><linearGradient id="linear-gradient" x1="1575.74" y1="32.07" x2="1328.26" y2="-188.08" gradientTransform="matrix(-0.81, -0.66, 0.64, -0.8, 1723.6, 1246.98)" gradientUnits="userSpaceOnUse"><stop offset="0" stop-color="#f3f8fe"/><stop offset="0.34" stop-color="#ecf4fc"/><stop offset="0.81" stop-color="#dae9f7"/><stop offset="1" stop-color="#d1e3f4"/></linearGradient><linearGradient id="linear-gradient-2" x1="194.62" y1="367.31" x2="716.11" y2="367.31" gradientTransform="translate(-6.27 7.61) rotate(-0.8)" gradientUnits="userSpaceOnUse"><stop offset="0" stop-color="#bfbfbf"/><stop offset="0.25" stop-color="#c1c3c6"/><stop offset="0.61" stop-color="#c7d0d8"/><stop offset="1" stop-color="#d1e3f4"/></linearGradient></defs><title>background-tab</title><path class="cls-1" d="M504.07,107.4c51.69-47.95,130.73-52,186.62-11.28,60.2,43.85,78.78,128.88,40,194.48l-252,311.69c-54.2,52-140.46,53.44-197.1,4.73-54.14-46.56-67.31-127-29.5-187.93Z" transform="translate(-195.37 -68.27)"/><path class="cls-2" d="M464,120.42c51-48.66,130-53.8,186.44-13.88,60.8,43,80.57,127.77,42.69,193.91L445.53,615.61c-53.47,52.79-139.71,55.39-197,7.48-54.78-45.81-69.07-126-32.11-187.51Z" transform="translate(-195.37 -68.27)"/></svg>