<?xml version="1.0" encoding="utf-8"?>
<!-- Generator: Adobe Illustrator 21.0.2, SVG Export Plug-In . SVG Version: 6.00 Build 0)  -->
<svg version="1.1" xmlns="http://www.w3.org/2000/svg" xmlns:xlink="http://www.w3.org/1999/xlink" x="0px" y="0px"
	 viewBox="0 0 410.3 368.3" style="enable-background:new 0 0 410.3 368.3;" xml:space="preserve">
<style type="text/css">
	.st0{fill:url(#SVGID_1_);}
	.st1{fill:#0377B4;}
	.st2{fill:#1853A3;}
	.st3{fill:#FFFFFF;stroke:url(#SVGID_2_);stroke-width:4;stroke-miterlimit:10;}
	.st4{fill:#FFFFFF;stroke:url(#SVGID_3_);stroke-width:4;stroke-miterlimit:10;}
	.st5{fill:#FFFFFF;stroke:url(#SVGID_4_);stroke-width:4;stroke-miterlimit:10;}
	.st6{fill:#FFFFFF;stroke:url(#SVGID_5_);stroke-width:4;stroke-miterlimit:10;}
	.st7{fill:#FFFFFF;stroke:url(#SVGID_6_);stroke-width:4;stroke-miterlimit:10;}
	.st8{fill:#FFFFFF;stroke:url(#SVGID_7_);stroke-width:4;stroke-miterlimit:10;}
	.st9{fill:#FFFFFF;stroke:url(#SVGID_8_);stroke-width:4;stroke-miterlimit:10;}
</style>
<g id="Layer_1">
</g>
<g id="Layer_3">
</g>
<g id="Layer_4">
	<g>
		<linearGradient id="SVGID_1_" gradientUnits="userSpaceOnUse" x1="37.4166" y1="181.7689" x2="396.7502" y2="181.7689">
			<stop  offset="0" style="stop-color:#1552A4"/>
			<stop  offset="1" style="stop-color:#3C7ABE"/>
		</linearGradient>
		<path class="st0" d="M181.8,359.4V359h-0.3v-0.4h-0.3v-0.4h-0.3v-0.4h-0.3v-0.4h-0.3V357h-0.3v-0.4h-0.3v-0.4h-0.3v-0.4h-0.3v-0.4
			h-0.3V355H178v-0.4h-0.3v-0.4h-0.3v-0.4H177v-0.4h-0.3V353h-0.3v-0.4H176v-0.4h-0.3v-0.4h-0.3v-0.4H175V351h-0.3v-0.4h-0.3v-0.4
			H174v-0.4h-0.3v-0.4h-0.3V349h-0.3v-0.4h-0.3v-0.4h-0.3v-0.4h-0.3v-0.4h-0.3v-0.4h-0.3v-0.4h-0.3v-0.4h-0.3v-0.4h-0.3v-0.4h-0.3
			v-0.4h-0.3v-0.4h-0.3v-0.4h-0.3v-0.4h-0.3v-0.4h-0.3v-0.4h-0.3v-0.4h-0.3v-0.4h-0.3v-0.4h-0.3v-0.4h-0.3v-0.4h-0.3v-0.4h-0.3v-0.4
			h-0.3v-0.4h-0.3v-0.4h-0.3v-0.4h-0.3v-0.4h-0.3v-0.4h-0.3v-0.4h-0.3v-0.4h-0.3v-0.4h-0.3v-0.4h-0.3v-0.4H162v-0.4h-0.3v-0.4h-0.3
			v-0.4H161v-0.4h-0.3v-0.4h-0.3v-0.4H160v-0.4h-0.3v-0.4h-0.3v-0.4H159v-0.4h-0.3V332h-0.3v-0.4h-0.3v-0.4h-0.3v-0.4h-0.3v-0.4
			h-0.3V330h-0.3v-0.4h-0.3v-0.4h-0.3v-0.4h-0.3v-0.4h-0.3V328h-0.3v-0.4h-0.3v-0.4h-0.3v-0.4h-0.3v-0.4h-0.3V326h-0.3v-0.4h-0.3
			v-0.4h-0.3v-0.4h-0.3v-0.4h-0.3V324h-0.3v-0.4h-0.3v-0.4h-0.3v-0.4h-0.3v-0.4h-0.3V322h-0.3v-0.4h-0.3v-0.4h-0.3v-0.4h-0.3v-0.4
			h-0.3V320h-0.3v-0.4h-0.3v-0.4h-0.3v-0.4H147v-0.4h-0.3v-0.4h-0.3v-0.4H146v-0.4h-0.3v-0.4h-0.3v-0.4H145v-0.4h-0.3v-0.4h-0.3
			v-0.4H144v-0.4h-0.3v-0.4h-0.3v-0.4H143v-0.4h-0.3v-0.4h-0.3v-0.4h-0.3v-0.4h-0.3v-0.4h-0.3v-0.4h-0.3v-0.4h-0.3v-0.4h-0.3v-0.4
			h-0.3v-0.4h-0.3v-0.4h-0.3v-0.4h-0.3v-0.4h-0.3v-0.4h-0.3v-0.4h-0.3v-0.4h-0.3v-0.4h-0.3v-0.4h-0.3v-0.4h-0.3v-0.4h-0.3v-0.4h-0.3
			v-0.4h-0.3V305h-0.3v-0.4h-0.3v-0.4h-0.3v-0.4h-0.3v-0.4h-0.3V303h-0.3v-0.4h-0.3v-0.4h-0.3v-0.4h-0.3v-0.4h-0.3V301h-0.3v-0.4
			h-0.3v-0.4H131v-0.4h-0.3v-0.4h-0.3V299H130v-0.4h-0.3v-0.4h-0.3V54.3h119.8c0.1,0.1,0.2,0.3,0.3,0.4h0c0.1,0.1,0.2,0.3,0.3,0.4h0
			c0.1,0.1,0.2,0.3,0.3,0.4h0c0.1,0.1,0.2,0.3,0.3,0.4h0c0.1,0.1,0.2,0.3,0.3,0.4h0c0.1,0.1,0.2,0.3,0.3,0.4h0
			c0.1,0.1,0.2,0.3,0.3,0.4h0c0.1,0.1,0.2,0.3,0.3,0.4h0c0.1,0.1,0.2,0.3,0.3,0.4h0c0.1,0.1,0.2,0.3,0.3,0.4h0
			c0.1,0.1,0.2,0.3,0.3,0.4h0c0.1,0.1,0.2,0.3,0.3,0.4h0c0.1,0.1,0.2,0.3,0.3,0.4h0c0.1,0.1,0.2,0.3,0.3,0.4h0
			c0.1,0.1,0.2,0.3,0.3,0.4h0c0.1,0.1,0.2,0.3,0.3,0.4h0c0.1,0.1,0.2,0.3,0.3,0.4h0c0.1,0.1,0.2,0.3,0.3,0.4h0
			c0.1,0.1,0.2,0.3,0.3,0.4h0c0.1,0.1,0.2,0.3,0.3,0.4h0c0.1,0.1,0.2,0.3,0.3,0.4h0c0.1,0.1,0.2,0.3,0.3,0.4h0
			c0.1,0.1,0.2,0.3,0.3,0.4h0c0.1,0.1,0.2,0.3,0.3,0.4h0c0.1,0.1,0.2,0.3,0.3,0.4h0c0.1,0.1,0.2,0.3,0.3,0.4h0
			c0.1,0.1,0.2,0.3,0.3,0.4h0c0.1,0.1,0.2,0.3,0.3,0.4h0c0.1,0.1,0.2,0.3,0.3,0.4h0c0.1,0.1,0.2,0.3,0.3,0.4h0
			c0.1,0.1,0.2,0.3,0.3,0.4h0c0.1,0.1,0.2,0.3,0.3,0.4h0c0.1,0.1,0.2,0.3,0.3,0.4h0c0.1,0.1,0.2,0.3,0.3,0.4h0
			c0.1,0.1,0.2,0.3,0.3,0.4h0c0.1,0.1,0.2,0.3,0.3,0.4h0c0.1,0.1,0.2,0.3,0.3,0.4h0c0.1,0.1,0.2,0.3,0.3,0.4h0
			c0.1,0.1,0.2,0.3,0.3,0.4h0c0.1,0.1,0.2,0.3,0.3,0.4h0c0.1,0.1,0.2,0.3,0.3,0.4h0c0.1,0.1,0.2,0.3,0.3,0.4h0
			c0.1,0.1,0.2,0.3,0.3,0.4h0c0.1,0.1,0.2,0.3,0.3,0.4h0c0.1,0.1,0.2,0.3,0.3,0.4h0c0.1,0.1,0.2,0.3,0.3,0.4h0
			c0.1,0.1,0.2,0.3,0.3,0.4h0c0.1,0.1,0.2,0.3,0.3,0.4h0c0.1,0.1,0.2,0.3,0.3,0.4h0c0.1,0.1,0.2,0.3,0.3,0.4h0
			c0.1,0.1,0.2,0.3,0.3,0.4h0c0.1,0.1,0.2,0.3,0.3,0.4h0c0.1,0.1,0.2,0.3,0.3,0.4h0c0.1,0.1,0.2,0.3,0.3,0.4h0
			c0.1,0.1,0.2,0.3,0.3,0.4h0c0.1,0.1,0.2,0.3,0.3,0.4h0c0.1,0.1,0.2,0.3,0.3,0.4h0c0.1,0.1,0.2,0.3,0.3,0.4h0
			c0.1,0.1,0.2,0.3,0.3,0.4h0c0.1,0.1,0.2,0.3,0.3,0.4h0c0.1,0.1,0.2,0.3,0.3,0.4h0c0.1,0.1,0.2,0.3,0.3,0.4h0
			c0.1,0.1,0.2,0.3,0.3,0.4h0c0.1,0.1,0.2,0.3,0.3,0.4h0c0.1,0.1,0.2,0.3,0.3,0.4h0c0.1,0.1,0.2,0.3,0.3,0.4h0
			c0.1,0.1,0.2,0.3,0.3,0.4h0c0.1,0.1,0.2,0.3,0.3,0.4h0c0.1,0.1,0.2,0.3,0.3,0.4h0c0.1,0.1,0.2,0.3,0.3,0.4h0
			c0.1,0.1,0.2,0.3,0.3,0.4h0c0.1,0.1,0.2,0.3,0.3,0.4h0c0.1,0.1,0.2,0.3,0.3,0.4h0c0.1,0.1,0.2,0.3,0.3,0.4h0
			c0.1,0.1,0.2,0.3,0.3,0.4h0c0.1,0.1,0.2,0.3,0.3,0.4h0c0.1,0.1,0.2,0.3,0.3,0.4h0c0.1,0.1,0.2,0.3,0.3,0.4h0
			c0.1,0.1,0.2,0.3,0.3,0.4h0c0.1,0.1,0.2,0.3,0.3,0.4h0c0.1,0.1,0.2,0.3,0.3,0.4h0c0.1,0.1,0.2,0.3,0.3,0.4h0
			c0.1,0.1,0.2,0.3,0.3,0.4h0c0.1,0.1,0.2,0.3,0.3,0.4h0c0.1,0.1,0.2,0.3,0.3,0.4h0c0.1,0.1,0.2,0.3,0.3,0.4h0
			c0.1,0.1,0.2,0.3,0.3,0.4h0c0.1,0.1,0.2,0.3,0.3,0.4h0c0.1,0.1,0.2,0.3,0.3,0.4h0c0.1,0.1,0.2,0.3,0.3,0.4h0
			c0.1,0.1,0.2,0.3,0.3,0.4h0c0.1,0.1,0.2,0.3,0.3,0.4h0c0.1,0.1,0.2,0.3,0.3,0.4h0c0.1,0.1,0.2,0.3,0.3,0.4h0
			c0.1,0.1,0.2,0.3,0.3,0.4h0c0.1,0.1,0.2,0.3,0.3,0.4h0c0.1,0.1,0.2,0.3,0.3,0.4h0c0.1,0.1,0.2,0.3,0.3,0.4h0
			c0.1,0.1,0.2,0.3,0.3,0.4h0c0.1,0.1,0.2,0.3,0.3,0.4h0c0.1,0.1,0.2,0.3,0.3,0.4h0c0.1,0.1,0.2,0.3,0.3,0.4h0
			c0.1,0.1,0.2,0.3,0.3,0.4h0c0.1,0.1,0.2,0.3,0.3,0.4h0c0.1,0.1,0.2,0.3,0.3,0.4h0c0.1,0.1,0.2,0.3,0.3,0.4h0
			c0.1,0.1,0.2,0.3,0.3,0.4h0c0.1,0.1,0.2,0.3,0.3,0.4h0c0.1,0.1,0.2,0.3,0.3,0.4h0c0.1,0.1,0.2,0.3,0.3,0.4h0
			c0.1,0.1,0.2,0.3,0.3,0.4h0c0.1,0.1,0.2,0.3,0.3,0.4h0c0.1,0.1,0.2,0.3,0.3,0.4h0c0.1,0.1,0.2,0.3,0.3,0.4h0
			c0.1,0.1,0.2,0.3,0.3,0.4h0c0.1,0.1,0.2,0.3,0.3,0.4h0c0.1,0.1,0.2,0.3,0.3,0.4h0c0.1,0.1,0.2,0.3,0.3,0.4h0
			c0.1,0.1,0.2,0.3,0.3,0.4h0c0.1,0.1,0.2,0.3,0.3,0.4h0c0.1,0.1,0.2,0.3,0.3,0.4h0c0.1,0.1,0.2,0.3,0.3,0.4h0
			c0.1,0.1,0.2,0.3,0.3,0.4h0c0.1,0.1,0.2,0.3,0.3,0.4h0c0.1,0.1,0.2,0.3,0.3,0.4h0c0.1,0.1,0.2,0.3,0.3,0.4h0
			c0.1,0.1,0.2,0.3,0.3,0.4h0c0.1,0.1,0.2,0.3,0.3,0.4h0c0.1,0.1,0.2,0.3,0.3,0.4h0c0.1,0.1,0.2,0.3,0.3,0.4h0
			c0.1,0.1,0.2,0.3,0.3,0.4h0c0.1,0.1,0.2,0.3,0.3,0.4h0c0.1,0.1,0.2,0.3,0.3,0.4h0c0.1,0.1,0.2,0.3,0.3,0.4h0
			c0.1,0.1,0.2,0.3,0.3,0.4h0c0.1,0.1,0.2,0.3,0.3,0.4h0c0.1,0.1,0.2,0.3,0.3,0.4h0c0.1,0.1,0.2,0.3,0.3,0.4h0
			c0.1,0.1,0.2,0.3,0.3,0.4h0c0.1,0.1,0.2,0.3,0.3,0.4h0c0.1,0.1,0.2,0.3,0.3,0.4h0c0.1,0.1,0.2,0.3,0.3,0.4h0
			c0.1,0.1,0.2,0.3,0.3,0.4h0c0.1,0.1,0.2,0.3,0.3,0.4h0c0.1,0.1,0.2,0.3,0.3,0.4h0c0.1,0.1,0.2,0.3,0.3,0.4h0
			c0.1,0.1,0.2,0.3,0.3,0.4h0c0.1,0.1,0.2,0.3,0.3,0.4h0c0.1,0.1,0.2,0.3,0.3,0.4h0c0.1,0.1,0.2,0.3,0.3,0.4h0
			c0.1,0.1,0.2,0.3,0.3,0.4h0c0.1,0.1,0.2,0.3,0.3,0.4h0c0.1,0.1,0.2,0.3,0.3,0.4h0c0.1,0.1,0.2,0.3,0.3,0.4h0
			c0.1,0.1,0.2,0.3,0.3,0.4h0c0.1,0.1,0.2,0.3,0.3,0.4h0c0.1,0.1,0.2,0.3,0.3,0.4h0c0.1,0.1,0.2,0.3,0.3,0.4h0
			c0.1,0.1,0.2,0.3,0.3,0.4h0c0.1,0.1,0.2,0.3,0.3,0.4h0c0.1,0.1,0.2,0.3,0.3,0.4h0c0.1,0.1,0.2,0.3,0.3,0.4h0
			c0.1,0.1,0.2,0.3,0.3,0.4h0c0.1,0.1,0.2,0.3,0.3,0.4h0c0.1,0.1,0.2,0.3,0.3,0.4h0c0.1,0.1,0.2,0.3,0.3,0.4h0
			c0.1,0.1,0.2,0.3,0.3,0.4h0c0.1,0.1,0.2,0.3,0.3,0.4h0c0.1,0.1,0.2,0.3,0.3,0.4h0c0.1,0.1,0.2,0.3,0.3,0.4h0
			c0.1,0.1,0.2,0.3,0.3,0.4h0c0.1,0.1,0.2,0.3,0.3,0.4h0c0.1,0.1,0.2,0.3,0.3,0.4h0c0.1,0.1,0.2,0.3,0.3,0.4h0
			c0.1,0.1,0.2,0.3,0.3,0.4h0c0.1,0.1,0.2,0.3,0.3,0.4h0c0.1,0.1,0.2,0.3,0.3,0.4h0c0.1,0.1,0.2,0.3,0.3,0.4h0
			c0.1,0.1,0.2,0.3,0.3,0.4h0c0.1,0.1,0.2,0.3,0.3,0.4h0c0.1,0.1,0.2,0.3,0.3,0.4h0c0.1,0.1,0.2,0.3,0.3,0.4h0
			c0.1,0.1,0.2,0.3,0.3,0.4h0c0.1,0.1,0.2,0.3,0.3,0.4h0c0.1,0.1,0.2,0.3,0.3,0.4h0c0.1,0.1,0.2,0.3,0.3,0.4h0
			c0.1,0.1,0.2,0.3,0.3,0.4h0c0.1,0.1,0.2,0.3,0.3,0.4h0c0.1,0.1,0.2,0.3,0.3,0.4h0c0.1,0.1,0.2,0.3,0.3,0.4h0
			c0.1,0.1,0.2,0.3,0.3,0.4h0c0.1,0.1,0.2,0.3,0.3,0.4h0c0.1,0.1,0.2,0.3,0.3,0.4h0c0.1,0.1,0.2,0.3,0.3,0.4h0
			c0.1,0.1,0.2,0.3,0.3,0.4h0c0.1,0.1,0.2,0.3,0.3,0.4h0c0.1,0.1,0.2,0.3,0.3,0.4h0c0.1,0.1,0.2,0.3,0.3,0.4h0
			c0.1,0.1,0.2,0.3,0.3,0.4h0c0.1,0.1,0.2,0.3,0.3,0.4h0c0.1,0.1,0.2,0.3,0.3,0.4h0c0.1,0.1,0.2,0.3,0.3,0.4h0
			c0.1,0.1,0.2,0.3,0.3,0.4h0c0.1,0.1,0.2,0.3,0.3,0.4h0c0.1,0.1,0.2,0.3,0.3,0.4h0c0.1,0.1,0.2,0.3,0.3,0.4h0
			c0.1,0.1,0.2,0.3,0.3,0.4h0c0.1,0.1,0.2,0.3,0.3,0.4h0c0.1,0.1,0.2,0.3,0.3,0.4h0c0.1,0.1,0.2,0.3,0.3,0.4h0
			c0.1,0.1,0.2,0.3,0.3,0.4h0c0.1,0.1,0.2,0.3,0.3,0.4h0c0.1,0.1,0.2,0.3,0.3,0.4h0c0.1,0.1,0.2,0.3,0.3,0.4h0
			c0.1,0.1,0.2,0.3,0.3,0.4h0c0.1,0.1,0.2,0.3,0.3,0.4h0c0.1,0.1,0.2,0.3,0.3,0.4h0c0.1,0.1,0.2,0.3,0.3,0.4h0
			c0.1,0.1,0.2,0.3,0.3,0.4h0c0.1,0.1,0.2,0.3,0.3,0.4h0c0.1,0.1,0.2,0.3,0.3,0.4h0c0.1,0.1,0.2,0.3,0.3,0.4h0
			c0.1,0.1,0.2,0.3,0.3,0.4h0c0.1,0.1,0.2,0.3,0.3,0.4h0c0.1,0.1,0.2,0.3,0.3,0.4h0c0.1,0.1,0.2,0.3,0.3,0.4h0
			c0.1,0.1,0.2,0.3,0.3,0.4h0c0.1,0.1,0.2,0.3,0.3,0.4h0c0.1,0.1,0.2,0.3,0.3,0.4h0c0.1,0.1,0.2,0.3,0.3,0.4h0
			c0.1,0.1,0.2,0.3,0.3,0.4h0c0.1,0.1,0.2,0.3,0.3,0.4h0c0.1,0.1,0.2,0.3,0.3,0.4h0c0.1,0.1,0.2,0.3,0.3,0.4h0
			c0.1,0.1,0.2,0.3,0.3,0.4h0c0.1,0.1,0.2,0.3,0.3,0.4h0c0.1,0.1,0.2,0.3,0.3,0.4h0c0.1,0.1,0.2,0.3,0.3,0.4h0
			c0.1,0.1,0.2,0.3,0.3,0.4h0c0.1,0.1,0.2,0.3,0.3,0.4h0c0.1,0.1,0.2,0.3,0.3,0.4h0c0.1,0.1,0.2,0.3,0.3,0.4h0
			c0.1,0.1,0.2,0.3,0.3,0.4h0c0.1,0.1,0.2,0.3,0.3,0.4h0c0.1,0.1,0.2,0.3,0.3,0.4h0c0.1,0.1,0.2,0.3,0.3,0.4h0
			c0.1,0.1,0.2,0.3,0.3,0.4h0c0.1,0.1,0.2,0.3,0.3,0.4h0c0.1,0.1,0.2,0.3,0.3,0.4h0c0.1,0.1,0.2,0.3,0.3,0.4h0
			c0.1,0.1,0.2,0.3,0.3,0.4h0c0.1,0.1,0.2,0.3,0.3,0.4h0c0.1,0.1,0.2,0.3,0.3,0.4h0c0.1,0.1,0.2,0.3,0.3,0.4h0
			c0.1,0.1,0.2,0.3,0.3,0.4h0c0.1,0.1,0.2,0.3,0.3,0.4h0c0.1,0.1,0.2,0.3,0.3,0.4h0c0.1,0.1,0.2,0.3,0.3,0.4h0
			c0.1,0.1,0.2,0.3,0.3,0.4h0c0.1,0.1,0.2,0.3,0.3,0.4h0c0.1,0.1,0.2,0.3,0.3,0.4h0c0.1,0.1,0.2,0.3,0.3,0.4h0
			c0.1,0.1,0.2,0.3,0.3,0.4h0c0.1,0.1,0.2,0.3,0.3,0.4h0c0.1,0.1,0.2,0.3,0.3,0.4h0c0.1,0.1,0.2,0.3,0.3,0.4h0
			c0.1,0.1,0.2,0.3,0.3,0.4h0c0.1,0.1,0.2,0.3,0.3,0.4h0c0.1,0.1,0.2,0.3,0.3,0.4h0c0.1,0.1,0.2,0.3,0.3,0.4h0
			c0.1,0.1,0.2,0.3,0.3,0.4h0c0.1,0.1,0.2,0.3,0.3,0.4h0c0.1,0.1,0.2,0.3,0.3,0.4h0c0.1,0.1,0.2,0.3,0.3,0.4h0
			c0.1,0.1,0.2,0.3,0.3,0.4h0c0.1,0.1,0.2,0.3,0.3,0.4h0c0.1,0.1,0.2,0.3,0.3,0.4h0c0.1,0.1,0.2,0.3,0.3,0.4h0
			c0.1,0.1,0.2,0.3,0.3,0.4h0c0.1,0.1,0.2,0.3,0.3,0.4h0c0.1,0.1,0.2,0.3,0.3,0.4h0c0.1,0.1,0.2,0.3,0.3,0.4h0
			c0.1,0.1,0.2,0.3,0.3,0.4h0c0.1,0.1,0.2,0.3,0.3,0.4h0c0.1,0.1,0.2,0.3,0.3,0.4h0c0.1,0.1,0.2,0.3,0.3,0.4h0
			c0.1,0.1,0.2,0.3,0.3,0.4h0c0.1,0.1,0.2,0.3,0.3,0.4h0c0.1,0.1,0.2,0.3,0.3,0.4h0c0.1,0.1,0.2,0.3,0.3,0.4h0
			c0.1,0.1,0.2,0.3,0.3,0.4h0c0.1,0.1,0.2,0.3,0.3,0.4h0c0.1,0.1,0.2,0.3,0.3,0.4h0c0.1,0.1,0.2,0.3,0.3,0.4h0
			c0.1,0.1,0.2,0.3,0.3,0.4h0c0.1,0.1,0.2,0.3,0.3,0.4h0c0.1,0.1,0.2,0.3,0.3,0.4h0c0.1,0.1,0.2,0.3,0.3,0.4h0
			c0.1,0.1,0.2,0.3,0.3,0.4h0c0.1,0.1,0.2,0.3,0.3,0.4h0c0.1,0.1,0.2,0.3,0.3,0.4h0c0.1,0.1,0.2,0.3,0.3,0.4h0
			c0.1,0.1,0.2,0.3,0.3,0.4h0c0.1,0.1,0.2,0.3,0.3,0.4h0c0.1,0.1,0.2,0.3,0.3,0.4h0c0.1,0.1,0.2,0.3,0.3,0.4h0
			c0.1,0.1,0.2,0.3,0.3,0.4h0c0.1,0.1,0.2,0.3,0.3,0.4h0c0.1,0.1,0.2,0.3,0.3,0.4h0c0.1,0.1,0.2,0.3,0.3,0.4h0
			c0.1,0.1,0.2,0.3,0.3,0.4h0c0.1,0.1,0.2,0.3,0.3,0.4h0c0.1,0.1,0.2,0.3,0.3,0.4h0c0.1,0.1,0.2,0.3,0.3,0.4h0
			c0.1,0.1,0.2,0.3,0.3,0.4h0c0.1,0.1,0.2,0.3,0.3,0.4h0c0.1,0.1,0.2,0.3,0.3,0.4h0c0.1,0.1,0.2,0.3,0.3,0.4h0
			c0.1,0.1,0.2,0.3,0.3,0.4h0c0.1,0.1,0.2,0.3,0.3,0.4h0c0.1,0.1,0.2,0.3,0.3,0.4h0c0.1,0.1,0.2,0.3,0.3,0.4h0
			c0.1,0.1,0.2,0.3,0.3,0.4h0c0.1,0.1,0.2,0.3,0.3,0.4h0c0.1,0.1,0.2,0.3,0.3,0.4h0c0.1,0.1,0.2,0.3,0.3,0.4h0
			c0.1,0.1,0.2,0.3,0.3,0.4h0c0.1,0.1,0.2,0.3,0.3,0.4h0c0.1,0.1,0.2,0.3,0.3,0.4h0c0.1,0.1,0.2,0.3,0.3,0.4h0
			c0.1,0.1,0.2,0.3,0.3,0.4h0c0.1,0.1,0.2,0.3,0.3,0.4h0c0.1,0.1,0.2,0.3,0.3,0.4h0c0.1,0.1,0.2,0.3,0.3,0.4h0
			c0.1,0.1,0.2,0.3,0.3,0.4h0c0.1,0.1,0.2,0.3,0.3,0.4h0c0.1,0.1,0.2,0.3,0.3,0.4h0c0.1,0.1,0.2,0.3,0.3,0.4h0
			c0.1,0.1,0.2,0.3,0.3,0.4h0c0.1,0.1,0.2,0.3,0.3,0.4h0c0.1,0.1,0.2,0.3,0.3,0.4h0c0.1,0.1,0.2,0.3,0.3,0.4h0
			c0.1,0.1,0.2,0.3,0.3,0.4h0c0.1,0.1,0.2,0.3,0.3,0.4h0c0.1,0.1,0.2,0.3,0.3,0.4h0c0.1,0.1,0.2,0.3,0.3,0.4h0
			c0.1,0.1,0.2,0.3,0.3,0.4h0c0.1,0.1,0.2,0.3,0.3,0.4h0c0.1,0.1,0.2,0.3,0.3,0.4h0c0.1,0.1,0.2,0.3,0.3,0.4h0
			c0.1,0.1,0.2,0.3,0.3,0.4h0c0.1,0.1,0.2,0.3,0.3,0.4h0c0.1,0.1,0.2,0.3,0.3,0.4h0c0.1,0.1,0.2,0.3,0.3,0.4h0
			c0.1,0.1,0.2,0.3,0.3,0.4h0c0.1,0.1,0.2,0.3,0.3,0.4h0c0.1,0.1,0.2,0.3,0.3,0.4h0c0.1,0.1,0.2,0.3,0.3,0.4h0
			c0.1,0.1,0.2,0.3,0.3,0.4h0c0.1,0.1,0.2,0.3,0.3,0.4h0c0.1,0.1,0.2,0.3,0.3,0.4h0c0.1,0.1,0.2,0.3,0.3,0.4h0
			c0.1,0.1,0.2,0.3,0.3,0.4h0c0.1,0.1,0.2,0.3,0.3,0.4h0c0.1,0.1,0.2,0.3,0.3,0.4h0c0.1,0.1,0.2,0.3,0.3,0.4h0
			c0.1,0.1,0.2,0.3,0.3,0.4h0c0.1,0.1,0.2,0.3,0.3,0.4h0c0.1,0.1,0.2,0.3,0.3,0.4h0c0.1,0.1,0.2,0.3,0.3,0.4h0
			c0.1,0.1,0.2,0.3,0.3,0.4h0c0.1,0.1,0.2,0.3,0.3,0.4h0c0.1,0.1,0.2,0.3,0.3,0.4h0c0.1,0.1,0.2,0.3,0.3,0.4h0
			c0.1,0.1,0.2,0.3,0.3,0.4h0c0.1,0.1,0.2,0.3,0.3,0.4h0c0.1,0.1,0.2,0.3,0.3,0.4h0c0.1,0.1,0.2,0.3,0.3,0.4h0
			c0.1,0.1,0.2,0.3,0.3,0.4h0c0.1,0.1,0.2,0.3,0.3,0.4h0c0.1,0.1,0.2,0.3,0.3,0.4h0c0.1,0.1,0.2,0.3,0.3,0.4h0
			c0.1,0.1,0.2,0.3,0.3,0.4h0c0.1,0.1,0.2,0.3,0.3,0.4h0c0.1,0.1,0.2,0.3,0.3,0.4h0c0.1,0.1,0.2,0.3,0.3,0.4h0
			c0.1,0.1,0.2,0.3,0.3,0.4h0c0.1,0.1,0.2,0.3,0.3,0.4h0c0.1,0.1,0.2,0.3,0.3,0.4h0c0.1,0.1,0.2,0.3,0.3,0.4h0
			c0.1,0.1,0.2,0.3,0.3,0.4h0c0.1,0.1,0.2,0.3,0.3,0.4h0c0.1,0.1,0.2,0.3,0.3,0.4h0c0.1,0.1,0.2,0.3,0.3,0.4h0
			c0.1,0.1,0.2,0.3,0.3,0.4h0c0.1,0.1,0.2,0.3,0.3,0.4h0c0.1,0.1,0.2,0.3,0.3,0.4h0c0.1,0.1,0.2,0.3,0.3,0.4h0
			c0.1,0.1,0.2,0.3,0.3,0.4h0c0.1,0.1,0.2,0.3,0.3,0.4h0c0.1,0.1,0.2,0.3,0.3,0.4h0c0.1,0.1,0.2,0.3,0.3,0.4h0
			c0.1,0.1,0.2,0.3,0.3,0.4h0c0.1,0.1,0.2,0.3,0.3,0.4h0c0.1,0.1,0.2,0.3,0.3,0.4h0c0.1,0.1,0.2,0.3,0.3,0.4h0
			c0.1,0.1,0.2,0.3,0.3,0.4h0c0.1,0.1,0.2,0.3,0.3,0.4h0c0.1,0.1,0.2,0.3,0.3,0.4h0c0.1,0.1,0.2,0.3,0.3,0.4h0
			c0.1,0.1,0.2,0.3,0.3,0.4h0c0.1,0.1,0.2,0.3,0.3,0.4h0c0.1,0.1,0.2,0.3,0.3,0.4h0c0.1,0.1,0.2,0.3,0.3,0.4h0
			c0.1,0.1,0.2,0.3,0.3,0.4h0c0.1,0.1,0.2,0.3,0.3,0.4h0c0.1,0.1,0.2,0.3,0.3,0.4h0c0.1,0.1,0.2,0.3,0.3,0.4h0
			c0.1,0.1,0.2,0.3,0.3,0.4h0c0.1,0.1,0.2,0.3,0.3,0.4h0c0.1,0.1,0.2,0.3,0.3,0.4h0c0,0.1,0.1,0.1,0.1,0.2
			c2.7-12.3,4.1-25.1,4.1-38.2c0-99.2-80.4-179.7-179.7-179.7S37.4,84.2,37.4,183.5c0,87.3,62.2,160,144.7,176.3v-0.4H181.8z"/>
		<path class="st1" d="M182.1,359.8h0.2C182.2,359.7,182.2,359.7,182.1,359.8L182.1,359.8z"/>
		<path class="st2" d="M392.7,221.7c0-0.1-0.1-0.1-0.1-0.2h0c-0.1-0.1-0.2-0.3-0.3-0.4h0c-0.1-0.1-0.2-0.3-0.3-0.4h0
			c-0.1-0.1-0.2-0.3-0.3-0.4h0c-0.1-0.1-0.2-0.3-0.3-0.4h0c-0.1-0.1-0.2-0.3-0.3-0.4h0c-0.1-0.1-0.2-0.3-0.3-0.4h0
			c-0.1-0.1-0.2-0.3-0.3-0.4h0c-0.1-0.1-0.2-0.3-0.3-0.4h0c-0.1-0.1-0.2-0.3-0.3-0.4h0c-0.1-0.1-0.2-0.3-0.3-0.4h0
			c-0.1-0.1-0.2-0.3-0.3-0.4h0c-0.1-0.1-0.2-0.3-0.3-0.4h0c-0.1-0.1-0.2-0.3-0.3-0.4h0c-0.1-0.1-0.2-0.3-0.3-0.4h0
			c-0.1-0.1-0.2-0.3-0.3-0.4h0c-0.1-0.1-0.2-0.3-0.3-0.4h0c-0.1-0.1-0.2-0.3-0.3-0.4h0c-0.1-0.1-0.2-0.3-0.3-0.4h0
			c-0.1-0.1-0.2-0.3-0.3-0.4h0c-0.1-0.1-0.2-0.3-0.3-0.4h0c-0.1-0.1-0.2-0.3-0.3-0.4h0c-0.1-0.1-0.2-0.3-0.3-0.4h0
			c-0.1-0.1-0.2-0.3-0.3-0.4h0c-0.1-0.1-0.2-0.3-0.3-0.4h0c-0.1-0.1-0.2-0.3-0.3-0.4h0c-0.1-0.1-0.2-0.3-0.3-0.4h0
			c-0.1-0.1-0.2-0.3-0.3-0.4h0c-0.1-0.1-0.2-0.3-0.3-0.4h0c-0.1-0.1-0.2-0.3-0.3-0.4h0c-0.1-0.1-0.2-0.3-0.3-0.4h0
			c-0.1-0.1-0.2-0.3-0.3-0.4h0c-0.1-0.1-0.2-0.3-0.3-0.4h0c-0.1-0.1-0.2-0.3-0.3-0.4h0c-0.1-0.1-0.2-0.3-0.3-0.4h0
			c-0.1-0.1-0.2-0.3-0.3-0.4h0c-0.1-0.1-0.2-0.3-0.3-0.4h0c-0.1-0.1-0.2-0.3-0.3-0.4h0c-0.1-0.1-0.2-0.3-0.3-0.4h0
			c-0.1-0.1-0.2-0.3-0.3-0.4h0c-0.1-0.1-0.2-0.3-0.3-0.4h0c-0.1-0.1-0.2-0.3-0.3-0.4h0c-0.1-0.1-0.2-0.3-0.3-0.4h0
			c-0.1-0.1-0.2-0.3-0.3-0.4h0c-0.1-0.1-0.2-0.3-0.3-0.4h0c-0.1-0.1-0.2-0.3-0.3-0.4h0c-0.1-0.1-0.2-0.3-0.3-0.4h0
			c-0.1-0.1-0.2-0.3-0.3-0.4h0c-0.1-0.1-0.2-0.3-0.3-0.4h0c-0.1-0.1-0.2-0.3-0.3-0.4h0c-0.1-0.1-0.2-0.3-0.3-0.4h0
			c-0.1-0.1-0.2-0.3-0.3-0.4h0c-0.1-0.1-0.2-0.3-0.3-0.4h0c-0.1-0.1-0.2-0.3-0.3-0.4h0c-0.1-0.1-0.2-0.3-0.3-0.4h0
			c-0.1-0.1-0.2-0.3-0.3-0.4h0c-0.1-0.1-0.2-0.3-0.3-0.4h0c-0.1-0.1-0.2-0.3-0.3-0.4h0c-0.1-0.1-0.2-0.3-0.3-0.4h0
			c-0.1-0.1-0.2-0.3-0.3-0.4h0c-0.1-0.1-0.2-0.3-0.3-0.4h0c-0.1-0.1-0.2-0.3-0.3-0.4h0c-0.1-0.1-0.2-0.3-0.3-0.4h0
			c-0.1-0.1-0.2-0.3-0.3-0.4h0c-0.1-0.1-0.2-0.3-0.3-0.4h0c-0.1-0.1-0.2-0.3-0.3-0.4h0c-0.1-0.1-0.2-0.3-0.3-0.4h0
			c-0.1-0.1-0.2-0.3-0.3-0.4h0c-0.1-0.1-0.2-0.3-0.3-0.4h0c-0.1-0.1-0.2-0.3-0.3-0.4h0c-0.1-0.1-0.2-0.3-0.3-0.4h0
			c-0.1-0.1-0.2-0.3-0.3-0.4h0c-0.1-0.1-0.2-0.3-0.3-0.4h0c-0.1-0.1-0.2-0.3-0.3-0.4h0c-0.1-0.1-0.2-0.3-0.3-0.4h0
			c-0.1-0.1-0.2-0.3-0.3-0.4h0c-0.1-0.1-0.2-0.3-0.3-0.4h0c-0.1-0.1-0.2-0.3-0.3-0.4h0c-0.1-0.1-0.2-0.3-0.3-0.4h0
			c-0.1-0.1-0.2-0.3-0.3-0.4h0c-0.1-0.1-0.2-0.3-0.3-0.4h0c-0.1-0.1-0.2-0.3-0.3-0.4h0c-0.1-0.1-0.2-0.3-0.3-0.4h0
			c-0.1-0.1-0.2-0.3-0.3-0.4h0c-0.1-0.1-0.2-0.3-0.3-0.4h0c-0.1-0.1-0.2-0.3-0.3-0.4h0c-0.1-0.1-0.2-0.3-0.3-0.4h0
			c-0.1-0.1-0.2-0.3-0.3-0.4h0c-0.1-0.1-0.2-0.3-0.3-0.4h0c-0.1-0.1-0.2-0.3-0.3-0.4h0c-0.1-0.1-0.2-0.3-0.3-0.4h0
			c-0.1-0.1-0.2-0.3-0.3-0.4h0c-0.1-0.1-0.2-0.3-0.3-0.4h0c-0.1-0.1-0.2-0.3-0.3-0.4h0c-0.1-0.1-0.2-0.3-0.3-0.4h0
			c-0.1-0.1-0.2-0.3-0.3-0.4h0c-0.1-0.1-0.2-0.3-0.3-0.4h0c-0.1-0.1-0.2-0.3-0.3-0.4h0c-0.1-0.1-0.2-0.3-0.3-0.4h0
			c-0.1-0.1-0.2-0.3-0.3-0.4h0c-0.1-0.1-0.2-0.3-0.3-0.4h0c-0.1-0.1-0.2-0.3-0.3-0.4h0c-0.1-0.1-0.2-0.3-0.3-0.4h0
			c-0.1-0.1-0.2-0.3-0.3-0.4h0c-0.1-0.1-0.2-0.3-0.3-0.4h0c-0.1-0.1-0.2-0.3-0.3-0.4h0c-0.1-0.1-0.2-0.3-0.3-0.4h0
			c-0.1-0.1-0.2-0.3-0.3-0.4h0c-0.1-0.1-0.2-0.3-0.3-0.4h0c-0.1-0.1-0.2-0.3-0.3-0.4h0c-0.1-0.1-0.2-0.3-0.3-0.4h0
			c-0.1-0.1-0.2-0.3-0.3-0.4h0c-0.1-0.1-0.2-0.3-0.3-0.4h0c-0.1-0.1-0.2-0.3-0.3-0.4h0c-0.1-0.1-0.2-0.3-0.3-0.4h0
			c-0.1-0.1-0.2-0.3-0.3-0.4h0c-0.1-0.1-0.2-0.3-0.3-0.4h0c-0.1-0.1-0.2-0.3-0.3-0.4h0c-0.1-0.1-0.2-0.3-0.3-0.4h0
			c-0.1-0.1-0.2-0.3-0.3-0.4h0c-0.1-0.1-0.2-0.3-0.3-0.4h0c-0.1-0.1-0.2-0.3-0.3-0.4h0c-0.1-0.1-0.2-0.3-0.3-0.4h0
			c-0.1-0.1-0.2-0.3-0.3-0.4h0c-0.1-0.1-0.2-0.3-0.3-0.4h0c-0.1-0.1-0.2-0.3-0.3-0.4h0c-0.1-0.1-0.2-0.3-0.3-0.4h0
			c-0.1-0.1-0.2-0.3-0.3-0.4h0c-0.1-0.1-0.2-0.3-0.3-0.4h0c-0.1-0.1-0.2-0.3-0.3-0.4h0c-0.1-0.1-0.2-0.3-0.3-0.4h0
			c-0.1-0.1-0.2-0.3-0.3-0.4h0c-0.1-0.1-0.2-0.3-0.3-0.4h0c-0.1-0.1-0.2-0.3-0.3-0.4h0c-0.1-0.1-0.2-0.3-0.3-0.4h0
			c-0.1-0.1-0.2-0.3-0.3-0.4h0c-0.1-0.1-0.2-0.3-0.3-0.4h0c-0.1-0.1-0.2-0.3-0.3-0.4h0c-0.1-0.1-0.2-0.3-0.3-0.4h0
			c-0.1-0.1-0.2-0.3-0.3-0.4h0c-0.1-0.1-0.2-0.3-0.3-0.4h0c-0.1-0.1-0.2-0.3-0.3-0.4h0c-0.1-0.1-0.2-0.3-0.3-0.4h0
			c-0.1-0.1-0.2-0.3-0.3-0.4h0c-0.1-0.1-0.2-0.3-0.3-0.4h0c-0.1-0.1-0.2-0.3-0.3-0.4h0c-0.1-0.1-0.2-0.3-0.3-0.4h0
			c-0.1-0.1-0.2-0.3-0.3-0.4h0c-0.1-0.1-0.2-0.3-0.3-0.4h0c-0.1-0.1-0.2-0.3-0.3-0.4h0c-0.1-0.1-0.2-0.3-0.3-0.4h0
			c-0.1-0.1-0.2-0.3-0.3-0.4h0c-0.1-0.1-0.2-0.3-0.3-0.4h0c-0.1-0.1-0.2-0.3-0.3-0.4h0c-0.1-0.1-0.2-0.3-0.3-0.4h0
			c-0.1-0.1-0.2-0.3-0.3-0.4h0c-0.1-0.1-0.2-0.3-0.3-0.4h0c-0.1-0.1-0.2-0.3-0.3-0.4h0c-0.1-0.1-0.2-0.3-0.3-0.4h0
			c-0.1-0.1-0.2-0.3-0.3-0.4h0c-0.1-0.1-0.2-0.3-0.3-0.4h0c-0.1-0.1-0.2-0.3-0.3-0.4h0c-0.1-0.1-0.2-0.3-0.3-0.4h0
			c-0.1-0.1-0.2-0.3-0.3-0.4h0c-0.1-0.1-0.2-0.3-0.3-0.4h0c-0.1-0.1-0.2-0.3-0.3-0.4h0c-0.1-0.1-0.2-0.3-0.3-0.4h0
			c-0.1-0.1-0.2-0.3-0.3-0.4h0c-0.1-0.1-0.2-0.3-0.3-0.4h0c-0.1-0.1-0.2-0.3-0.3-0.4h0c-0.1-0.1-0.2-0.3-0.3-0.4h0
			c-0.1-0.1-0.2-0.3-0.3-0.4h0c-0.1-0.1-0.2-0.3-0.3-0.4h0c-0.1-0.1-0.2-0.3-0.3-0.4h0c-0.1-0.1-0.2-0.3-0.3-0.4h0
			c-0.1-0.1-0.2-0.3-0.3-0.4h0c-0.1-0.1-0.2-0.3-0.3-0.4h0c-0.1-0.1-0.2-0.3-0.3-0.4h0c-0.1-0.1-0.2-0.3-0.3-0.4h0
			c-0.1-0.1-0.2-0.3-0.3-0.4h0c-0.1-0.1-0.2-0.3-0.3-0.4h0c-0.1-0.1-0.2-0.3-0.3-0.4h0c-0.1-0.1-0.2-0.3-0.3-0.4h0
			c-0.1-0.1-0.2-0.3-0.3-0.4h0c-0.1-0.1-0.2-0.3-0.3-0.4h0c-0.1-0.1-0.2-0.3-0.3-0.4h0c-0.1-0.1-0.2-0.3-0.3-0.4h0
			c-0.1-0.1-0.2-0.3-0.3-0.4h0c-0.1-0.1-0.2-0.3-0.3-0.4h0c-0.1-0.1-0.2-0.3-0.3-0.4h0c-0.1-0.1-0.2-0.3-0.3-0.4h0
			c-0.1-0.1-0.2-0.3-0.3-0.4h0c-0.1-0.1-0.2-0.3-0.3-0.4h0c-0.1-0.1-0.2-0.3-0.3-0.4h0c-0.1-0.1-0.2-0.3-0.3-0.4h0
			c-0.1-0.1-0.2-0.3-0.3-0.4h0c-0.1-0.1-0.2-0.3-0.3-0.4h0c-0.1-0.1-0.2-0.3-0.3-0.4h0c-0.1-0.1-0.2-0.3-0.3-0.4h0
			c-0.1-0.1-0.2-0.3-0.3-0.4h0c-0.1-0.1-0.2-0.3-0.3-0.4h0c-0.1-0.1-0.2-0.3-0.3-0.4h0c-0.1-0.1-0.2-0.3-0.3-0.4h0
			c-0.1-0.1-0.2-0.3-0.3-0.4h0c-0.1-0.1-0.2-0.3-0.3-0.4h0c-0.1-0.1-0.2-0.3-0.3-0.4h0c-0.1-0.1-0.2-0.3-0.3-0.4h0
			c-0.1-0.1-0.2-0.3-0.3-0.4h0c-0.1-0.1-0.2-0.3-0.3-0.4h0c-0.1-0.1-0.2-0.3-0.3-0.4h0c-0.1-0.1-0.2-0.3-0.3-0.4h0
			c-0.1-0.1-0.2-0.3-0.3-0.4h0c-0.1-0.1-0.2-0.3-0.3-0.4h0c-0.1-0.1-0.2-0.3-0.3-0.4h0c-0.1-0.1-0.2-0.3-0.3-0.4h0
			c-0.1-0.1-0.2-0.3-0.3-0.4h0c-0.1-0.1-0.2-0.3-0.3-0.4h0c-0.1-0.1-0.2-0.3-0.3-0.4h0c-0.1-0.1-0.2-0.3-0.3-0.4h0
			c-0.1-0.1-0.2-0.3-0.3-0.4h0c-0.1-0.1-0.2-0.3-0.3-0.4h0c-0.1-0.1-0.2-0.3-0.3-0.4h0c-0.1-0.1-0.2-0.3-0.3-0.4h0
			c-0.1-0.1-0.2-0.3-0.3-0.4h0c-0.1-0.1-0.2-0.3-0.3-0.4h0c-0.1-0.1-0.2-0.3-0.3-0.4h0c-0.1-0.1-0.2-0.3-0.3-0.4h0
			c-0.1-0.1-0.2-0.3-0.3-0.4h0c-0.1-0.1-0.2-0.3-0.3-0.4h0c-0.1-0.1-0.2-0.3-0.3-0.4h0c-0.1-0.1-0.2-0.3-0.3-0.4h0
			c-0.1-0.1-0.2-0.3-0.3-0.4h0c-0.1-0.1-0.2-0.3-0.3-0.4h0c-0.1-0.1-0.2-0.3-0.3-0.4h0c-0.1-0.1-0.2-0.3-0.3-0.4h0
			c-0.1-0.1-0.2-0.3-0.3-0.4h0c-0.1-0.1-0.2-0.3-0.3-0.4h0c-0.1-0.1-0.2-0.3-0.3-0.4h0c-0.1-0.1-0.2-0.3-0.3-0.4h0
			c-0.1-0.1-0.2-0.3-0.3-0.4h0c-0.1-0.1-0.2-0.3-0.3-0.4h0c-0.1-0.1-0.2-0.3-0.3-0.4h0c-0.1-0.1-0.2-0.3-0.3-0.4h0
			c-0.1-0.1-0.2-0.3-0.3-0.4h0c-0.1-0.1-0.2-0.3-0.3-0.4h0c-0.1-0.1-0.2-0.3-0.3-0.4h0c-0.1-0.1-0.2-0.3-0.3-0.4h0
			c-0.1-0.1-0.2-0.3-0.3-0.4h0c-0.1-0.1-0.2-0.3-0.3-0.4h0c-0.1-0.1-0.2-0.3-0.3-0.4h0c-0.1-0.1-0.2-0.3-0.3-0.4h0
			c-0.1-0.1-0.2-0.3-0.3-0.4h0c-0.1-0.1-0.2-0.3-0.3-0.4h0c-0.1-0.1-0.2-0.3-0.3-0.4h0c-0.1-0.1-0.2-0.3-0.3-0.4h0
			c-0.1-0.1-0.2-0.3-0.3-0.4h0c-0.1-0.1-0.2-0.3-0.3-0.4h0c-0.1-0.1-0.2-0.3-0.3-0.4h0c-0.1-0.1-0.2-0.3-0.3-0.4h0
			c-0.1-0.1-0.2-0.3-0.3-0.4h0c-0.1-0.1-0.2-0.3-0.3-0.4h0c-0.1-0.1-0.2-0.3-0.3-0.4h0c-0.1-0.1-0.2-0.3-0.3-0.4h0
			c-0.1-0.1-0.2-0.3-0.3-0.4h0c-0.1-0.1-0.2-0.3-0.3-0.4h0c-0.1-0.1-0.2-0.3-0.3-0.4h0c-0.1-0.1-0.2-0.3-0.3-0.4h0
			c-0.1-0.1-0.2-0.3-0.3-0.4h0c-0.1-0.1-0.2-0.3-0.3-0.4h0c-0.1-0.1-0.2-0.3-0.3-0.4h0c-0.1-0.1-0.2-0.3-0.3-0.4h0
			c-0.1-0.1-0.2-0.3-0.3-0.4h0c-0.1-0.1-0.2-0.3-0.3-0.4h0c-0.1-0.1-0.2-0.3-0.3-0.4h0c-0.1-0.1-0.2-0.3-0.3-0.4h0
			c-0.1-0.1-0.2-0.3-0.3-0.4h0c-0.1-0.1-0.2-0.3-0.3-0.4h0c-0.1-0.1-0.2-0.3-0.3-0.4h0c-0.1-0.1-0.2-0.3-0.3-0.4h0
			c-0.1-0.1-0.2-0.3-0.3-0.4h0c-0.1-0.1-0.2-0.3-0.3-0.4h0c-0.1-0.1-0.2-0.3-0.3-0.4h0c-0.1-0.1-0.2-0.3-0.3-0.4h0
			c-0.1-0.1-0.2-0.3-0.3-0.4h0c-0.1-0.1-0.2-0.3-0.3-0.4h0c-0.1-0.1-0.2-0.3-0.3-0.4h0c-0.1-0.1-0.2-0.3-0.3-0.4h0
			c-0.1-0.1-0.2-0.3-0.3-0.4h0c-0.1-0.1-0.2-0.3-0.3-0.4h0c-0.1-0.1-0.2-0.3-0.3-0.4h0c-0.1-0.1-0.2-0.3-0.3-0.4h0
			c-0.1-0.1-0.2-0.3-0.3-0.4h0c-0.1-0.1-0.2-0.3-0.3-0.4h0c-0.1-0.1-0.2-0.3-0.3-0.4h0c-0.1-0.1-0.2-0.3-0.3-0.4h0
			c-0.1-0.1-0.2-0.3-0.3-0.4h0c-0.1-0.1-0.2-0.3-0.3-0.4h0c-0.1-0.1-0.2-0.3-0.3-0.4h0c-0.1-0.1-0.2-0.3-0.3-0.4h0
			c-0.1-0.1-0.2-0.3-0.3-0.4h0c-0.1-0.1-0.2-0.3-0.3-0.4h0c-0.1-0.1-0.2-0.3-0.3-0.4h0c-0.1-0.1-0.2-0.3-0.3-0.4h0
			c-0.1-0.1-0.2-0.3-0.3-0.4h0c-0.1-0.1-0.2-0.3-0.3-0.4h0c-0.1-0.1-0.2-0.3-0.3-0.4h0c-0.1-0.1-0.2-0.3-0.3-0.4h0
			c-0.1-0.1-0.2-0.3-0.3-0.4h0c-0.1-0.1-0.2-0.3-0.3-0.4h0c-0.1-0.1-0.2-0.3-0.3-0.4h0c-0.1-0.1-0.2-0.3-0.3-0.4h0
			c-0.1-0.1-0.2-0.3-0.3-0.4h0c-0.1-0.1-0.2-0.3-0.3-0.4h0c-0.1-0.1-0.2-0.3-0.3-0.4h0c-0.1-0.1-0.2-0.3-0.3-0.4h0
			c-0.1-0.1-0.2-0.3-0.3-0.4h0c-0.1-0.1-0.2-0.3-0.3-0.4h0c-0.1-0.1-0.2-0.3-0.3-0.4h0c-0.1-0.1-0.2-0.3-0.3-0.4h0
			c-0.1-0.1-0.2-0.3-0.3-0.4h0c-0.1-0.1-0.2-0.3-0.3-0.4h0c-0.1-0.1-0.2-0.3-0.3-0.4h0c-0.1-0.1-0.2-0.3-0.3-0.4h0
			c-0.1-0.1-0.2-0.3-0.3-0.4h0c-0.1-0.1-0.2-0.3-0.3-0.4h0c-0.1-0.1-0.2-0.3-0.3-0.4h0c-0.1-0.1-0.2-0.3-0.3-0.4h0
			c-0.1-0.1-0.2-0.3-0.3-0.4h0c-0.1-0.1-0.2-0.3-0.3-0.4h0c-0.1-0.1-0.2-0.3-0.3-0.4h0c-0.1-0.1-0.2-0.3-0.3-0.4h0
			c-0.1-0.1-0.2-0.3-0.3-0.4h0c-0.1-0.1-0.2-0.3-0.3-0.4h0c-0.1-0.1-0.2-0.3-0.3-0.4h0c-0.1-0.1-0.2-0.3-0.3-0.4h0
			c-0.1-0.1-0.2-0.3-0.3-0.4h0c-0.1-0.1-0.2-0.3-0.3-0.4h0c-0.1-0.1-0.2-0.3-0.3-0.4h0c-0.1-0.1-0.2-0.3-0.3-0.4h0
			c-0.1-0.1-0.2-0.3-0.3-0.4h0c-0.1-0.1-0.2-0.3-0.3-0.4h0c-0.1-0.1-0.2-0.3-0.3-0.4h0c-0.1-0.1-0.2-0.3-0.3-0.4h0
			c-0.1-0.1-0.2-0.3-0.3-0.4h0c-0.1-0.1-0.2-0.3-0.3-0.4h0c-0.1-0.1-0.2-0.3-0.3-0.4h0c-0.1-0.1-0.2-0.3-0.3-0.4h0
			c-0.1-0.1-0.2-0.3-0.3-0.4h0c-0.1-0.1-0.2-0.3-0.3-0.4h0c-0.1-0.1-0.2-0.3-0.3-0.4h0c-0.1-0.1-0.2-0.3-0.3-0.4h0
			c-0.1-0.1-0.2-0.3-0.3-0.4h0c-0.1-0.1-0.2-0.3-0.3-0.4h0c-0.1-0.1-0.2-0.3-0.3-0.4h0c-0.1-0.1-0.2-0.3-0.3-0.4h0
			c-0.1-0.1-0.2-0.3-0.3-0.4h0c-0.1-0.1-0.2-0.3-0.3-0.4h0c-0.1-0.1-0.2-0.3-0.3-0.4h0c-0.1-0.1-0.2-0.3-0.3-0.4h0
			c-0.1-0.1-0.2-0.3-0.3-0.4h0c-0.1-0.1-0.2-0.3-0.3-0.4h0c-0.1-0.1-0.2-0.3-0.3-0.4h0c-0.1-0.1-0.2-0.3-0.3-0.4h0
			c-0.1-0.1-0.2-0.3-0.3-0.4h0c-0.1-0.1-0.2-0.3-0.3-0.4h0c-0.1-0.1-0.2-0.3-0.3-0.4h0c-0.1-0.1-0.2-0.3-0.3-0.4h0
			c-0.1-0.1-0.2-0.3-0.3-0.4h0c-0.1-0.1-0.2-0.3-0.3-0.4h0c-0.1-0.1-0.2-0.3-0.3-0.4h0c-0.1-0.1-0.2-0.3-0.3-0.4h0
			c-0.1-0.1-0.2-0.3-0.3-0.4h0c-0.1-0.1-0.2-0.3-0.3-0.4h0c-0.1-0.1-0.2-0.3-0.3-0.4h0c-0.1-0.1-0.2-0.3-0.3-0.4h0
			c-0.1-0.1-0.2-0.3-0.3-0.4h0c-0.1-0.1-0.2-0.3-0.3-0.4h0c-0.1-0.1-0.2-0.3-0.3-0.4h0c-0.1-0.1-0.2-0.3-0.3-0.4h0
			c-0.1-0.1-0.2-0.3-0.3-0.4h0c-0.1-0.1-0.2-0.3-0.3-0.4h0c-0.1-0.1-0.2-0.3-0.3-0.4h0c-0.1-0.1-0.2-0.3-0.3-0.4h0
			c-0.1-0.1-0.2-0.3-0.3-0.4h0c-0.1-0.1-0.2-0.3-0.3-0.4h0c-0.1-0.1-0.2-0.3-0.3-0.4h0c-0.1-0.1-0.2-0.3-0.3-0.4h0
			c-0.1-0.1-0.2-0.3-0.3-0.4h0c-0.1-0.1-0.2-0.3-0.3-0.4h0c-0.1-0.1-0.2-0.3-0.3-0.4h0c-0.1-0.1-0.2-0.3-0.3-0.4h0
			c-0.1-0.1-0.2-0.3-0.3-0.4h0c-0.1-0.1-0.2-0.3-0.3-0.4h0c-0.1-0.1-0.2-0.3-0.3-0.4h0c-0.1-0.1-0.2-0.3-0.3-0.4h0
			c-0.1-0.1-0.2-0.3-0.3-0.4h0c-0.1-0.1-0.2-0.3-0.3-0.4h0c-0.1-0.1-0.2-0.3-0.3-0.4h0c-0.1-0.1-0.2-0.3-0.3-0.4h0
			c-0.1-0.1-0.2-0.3-0.3-0.4h0c-0.1-0.1-0.2-0.3-0.3-0.4h0c-0.1-0.1-0.2-0.3-0.3-0.4h0c-0.1-0.1-0.2-0.3-0.3-0.4h0
			c-0.1-0.1-0.2-0.3-0.3-0.4h0c-0.1-0.1-0.2-0.3-0.3-0.4h0c-0.1-0.1-0.2-0.3-0.3-0.4h0c-0.1-0.1-0.2-0.3-0.3-0.4h0
			c-0.1-0.1-0.2-0.3-0.3-0.4h0c-0.1-0.1-0.2-0.3-0.3-0.4h0c-0.1-0.1-0.2-0.3-0.3-0.4h0c-0.1-0.1-0.2-0.3-0.3-0.4h0
			c-0.1-0.1-0.2-0.3-0.3-0.4h0c-0.1-0.1-0.2-0.3-0.3-0.4h0c-0.1-0.1-0.2-0.3-0.3-0.4h0c-0.1-0.1-0.2-0.3-0.3-0.4h0
			c-0.1-0.1-0.2-0.3-0.3-0.4h0c-0.1-0.1-0.2-0.3-0.3-0.4h0c-0.1-0.1-0.2-0.3-0.3-0.4h0c-0.1-0.1-0.2-0.3-0.3-0.4h0
			c-0.1-0.1-0.2-0.3-0.3-0.4h0c-0.1-0.1-0.2-0.3-0.3-0.4h0c-0.1-0.1-0.2-0.3-0.3-0.4H129.3v243.9h0.3v0.4h0.3v0.4h0.3v0.4h0.3v0.4
			h0.3v0.4h0.3v0.4h0.3v0.4h0.3v0.4h0.3v0.4h0.3v0.4h0.3v0.4h0.3v0.4h0.3v0.4h0.3v0.4h0.3v0.4h0.3v0.4h0.3v0.4h0.3v0.4h0.3v0.4h0.3
			v0.4h0.3v0.4h0.3v0.4h0.3v0.4h0.3v0.4h0.3v0.4h0.3v0.4h0.3v0.4h0.3v0.4h0.3v0.4h0.3v0.4h0.3v0.4h0.3v0.4h0.3v0.4h0.3v0.4h0.3v0.4
			h0.3v0.4h0.3v0.4h0.3v0.4h0.3v0.4h0.3v0.4h0.3v0.4h0.3v0.4h0.3v0.4h0.3v0.4h0.3v0.4h0.3v0.4h0.3v0.4h0.3v0.4h0.3v0.4h0.3v0.4h0.3
			v0.4h0.3v0.4h0.3v0.4h0.3v0.4h0.3v0.4h0.3v0.4h0.3v0.4h0.3v0.4h0.3v0.4h0.3v0.4h0.3v0.4h0.3v0.4h0.3v0.4h0.3v0.4h0.3v0.4h0.3v0.4
			h0.3v0.4h0.3v0.4h0.3v0.4h0.3v0.4h0.3v0.4h0.3v0.4h0.3v0.4h0.3v0.4h0.3v0.4h0.3v0.4h0.3v0.4h0.3v0.4h0.3v0.4h0.3v0.4h0.3v0.4h0.3
			v0.4h0.3v0.4h0.3v0.4h0.3v0.4h0.3v0.4h0.3v0.4h0.3v0.4h0.3v0.4h0.3v0.4h0.3v0.4h0.3v0.4h0.3v0.4h0.3v0.4h0.3v0.4h0.3v0.4h0.3v0.4
			h0.3v0.4h0.3v0.4h0.3v0.4h0.3v0.4h0.3v0.4h0.3v0.4h0.3v0.4h0.3v0.4h0.3v0.4h0.3v0.4h0.3v0.4h0.3v0.4h0.3v0.4h0.3v0.4h0.3v0.4h0.3
			v0.4h0.3v0.4h0.3v0.4h0.3v0.4h0.3v0.4h0.3v0.4h0.3v0.4h0.3v0.4h0.3v0.4h0.3v0.4h0.3v0.4h0.3v0.4h0.3v0.4h0.3v0.4h0.3v0.4h0.3v0.4
			h0.3v0.4h0.3v0.4h0.3v0.4h0.3v0.4h0.3v0.4h0.3v0.4h0.3v0.4h0.3v0.4h0.3v0.4h0.3v0.4h0.3v0.4h0.3v0.4h0.3v0.4h0.3v0.4h0.3v0.4h0.3
			v0.4h0.3v0.4h0.3v0.4h0.3v0.4h0.3v0.4h0.3v0.4h0.3v0.4h0.3v0.4h0.3v0.4h0.3v0.4h0.3v0.4h0.3v0.4c0.1,0,0.1,0,0.2,0h0.2v0
			c11.2,2.2,22.8,3.3,34.6,3.3C303.2,363.1,375.2,302.5,392.7,221.7z"/>
	</g>
	<linearGradient id="SVGID_2_" gradientUnits="userSpaceOnUse" x1="124.5629" y1="173.2245" x2="309.8098" y2="173.2245">
		<stop  offset="0" style="stop-color:#1853A3"/>
		<stop  offset="1" style="stop-color:#3C7BBF"/>
	</linearGradient>
	<path class="st3" d="M126.6,51.3h119.8c20.5,24.4,41,48.8,61.4,73.2c-0.4,56.9-0.7,113.8-1.1,170.6H126.6V51.3z"/>
</g>
<g id="Layer_6">
</g>
<g id="Layer_8">
	<linearGradient id="SVGID_3_" gradientUnits="userSpaceOnUse" x1="241.3864" y1="85.5408" x2="311.5814" y2="85.5408">
		<stop  offset="0" style="stop-color:#1853A3"/>
		<stop  offset="1" style="stop-color:#3C7BBF"/>
	</linearGradient>
	<polygon class="st4" points="307.3,125.3 243.9,49.3 243.4,125.3 	"/>
</g>
<g id="Layer_7">
	<linearGradient id="SVGID_4_" gradientUnits="userSpaceOnUse" x1="239.3707" y1="274.756" x2="341.6575" y2="274.756">
		<stop  offset="0" style="stop-color:#1853A3"/>
		<stop  offset="1" style="stop-color:#3C7BBF"/>
	</linearGradient>
	<circle class="st5" cx="290.5" cy="274.8" r="49.1"/>
	<linearGradient id="SVGID_5_" gradientUnits="userSpaceOnUse" x1="288.4171" y1="263.0873" x2="292.4796" y2="263.0873">
		<stop  offset="0" style="stop-color:#1A54A2"/>
		<stop  offset="1" style="stop-color:#3C7BBF"/>
	</linearGradient>
	<line class="st6" x1="290.4" y1="246.9" x2="290.5" y2="279.3"/>
	<linearGradient id="SVGID_6_" gradientUnits="userSpaceOnUse" x1="288.0022" y1="275.6887" x2="307.4296" y2="275.6887">
		<stop  offset="0" style="stop-color:#1A54A2"/>
		<stop  offset="1" style="stop-color:#3C7BBF"/>
	</linearGradient>
	<line class="st7" x1="306.1" y1="268.6" x2="289.3" y2="282.8"/>
	<linearGradient id="SVGID_7_" gradientUnits="userSpaceOnUse" x1="272.1775" y1="275.7108" x2="292.4949" y2="275.7108">
		<stop  offset="0" style="stop-color:#1A54A2"/>
		<stop  offset="1" style="stop-color:#3C7BBF"/>
	</linearGradient>
	<line class="st8" x1="291.3" y1="282.2" x2="273.4" y2="269.2"/>
	<linearGradient id="SVGID_8_" gradientUnits="userSpaceOnUse" x1="258.937" y1="292.0082" x2="322.0203" y2="292.0082">
		<stop  offset="0" style="stop-color:#1A54A2"/>
		<stop  offset="1" style="stop-color:#3C7BBF"/>
	</linearGradient>
	<path class="st9" d="M260.8,285.3c0,0,2.8,9.1,8.7,10.7s38.2,2.3,42.7,0s8-10.7,8-10.7"/>
	<polygon class="st2" points="205.2,154.1 229,154.1 229,177.9 252.8,177.9 252.8,201.8 229,201.8 229,225.6 205.2,225.6 
		205.2,201.8 181.3,201.8 181.3,177.9 205.2,177.9 	"/>
</g>
</svg>
