<svg id="Layer_1" data-name="Layer 1" xmlns="http://www.w3.org/2000/svg" xmlns:xlink="http://www.w3.org/1999/xlink" viewBox="0 0 522.24 196.26"><defs><style>.cls-1{fill:url(#linear-gradient);}.cls-2{fill:url(#linear-gradient-2);}.cls-3{fill:url(#linear-gradient-3);}.cls-4{fill:url(#linear-gradient-4);}</style><linearGradient id="linear-gradient" x1="331.8" y1="484.95" x2="207.98" y2="641.65" gradientUnits="userSpaceOnUse"><stop offset="0" stop-color="#f0f5fb"/><stop offset="0.08" stop-color="#dce9f6"/><stop offset="0.24" stop-color="#bed6ee"/><stop offset="0.4" stop-color="#a6c8e8"/><stop offset="0.57" stop-color="#95bee4"/><stop offset="0.76" stop-color="#8bb8e2"/><stop offset="1" stop-color="#88b6e1"/></linearGradient><linearGradient id="linear-gradient-2" x1="296.63" y1="595.99" x2="381.29" y2="654.6" gradientUnits="userSpaceOnUse"><stop offset="0" stop-color="#f0f5fb"/><stop offset="0.08" stop-color="#d3e3f3"/><stop offset="0.19" stop-color="#b1cfeb"/><stop offset="0.31" stop-color="#95bee4"/><stop offset="0.44" stop-color="#80b1de"/><stop offset="0.59" stop-color="#71a8da"/><stop offset="0.75" stop-color="#68a3d8"/><stop offset="1" stop-color="#65a1d7"/></linearGradient><linearGradient id="linear-gradient-3" x1="187.13" y1="625.27" x2="128.35" y2="572.99" gradientUnits="userSpaceOnUse"><stop offset="0" stop-color="#95bfe6"/><stop offset="0.44" stop-color="#9cc4e8"/><stop offset="0.76" stop-color="#a4caeb"/></linearGradient><linearGradient id="linear-gradient-4" x1="537.28" y1="598.99" x2="418.62" y2="658.81" gradientUnits="userSpaceOnUse"><stop offset="0" stop-color="#afd2ef"/><stop offset="0.19" stop-color="#a8cded"/><stop offset="0.46" stop-color="#96c0e6"/><stop offset="0.6" stop-color="#89b6e1"/></linearGradient></defs><title>before footer</title><path class="cls-1" d="M269.72,658l85.64-105.93a59.8,59.8,0,0,0-92.06-74.43L160.92,604.27A59.37,59.37,0,0,0,156.66,658Z" transform="translate(-44.3 -461.74)"/><path class="cls-2" d="M411.46,658l1.36-1.69a59.8,59.8,0,0,0-92.06-74.43L259.22,658Z" transform="translate(-44.3 -461.74)"/><path class="cls-3" d="M186.68,658l60.18-74.43a59.8,59.8,0,0,0-92.06-74.43L52.42,635.77A58.26,58.26,0,0,0,44.3,658Z" transform="translate(-44.3 -461.74)"/><path class="cls-4" d="M549.24,658l9-11.19a59.8,59.8,0,0,0-92.06-74.43L397,658Z" transform="translate(-44.3 -461.74)"/></svg>