<svg xmlns="http://www.w3.org/2000/svg" xmlns:xlink="http://www.w3.org/1999/xlink" viewBox="0 0 409 409"><defs><style>.cls-1{fill:url(#linear-gradient);}.cls-2{fill:none;stroke:#fff;stroke-miterlimit:10;}.cls-3{fill:#fff;}</style><linearGradient id="linear-gradient" y1="204.5" x2="409" y2="204.5" gradientUnits="userSpaceOnUse"><stop offset="0" stop-color="#054faa"/><stop offset="1" stop-color="#0f80ea"/></linearGradient></defs><title>design</title><g id="Layer_1" data-name="Layer 1"><circle class="cls-1" cx="204.5" cy="204.5" r="204.5"/></g><g id="Layer_2" data-name="Layer 2"><path class="cls-2" d="M284.5,184.5" transform="translate(-271.87 -148)"/><path class="cls-3" d="M455.47,249.45l-68.16,58.38-9.71,8.32c-9.23,7.9-5.4,22.43,3.64,28.27l79.34,51.2c7.93,5.12,20.22,1.88,24.63-6.46a18.4,18.4,0,0,0-6.46-24.63l-79.34-51.2,3.64,28.27,68.16-58.38,9.71-8.32c7.18-6.15,6.79-19.23,0-25.46-7.64-7-17.8-6.56-25.46,0Z" transform="translate(-271.87 -148)"/><path class="cls-3" d="M488.42,458.37l72.72-52.59,10.36-7.49c5.29-3.82,8.92-8.72,8.92-15.54s-3.7-11.53-8.92-15.54l-74.87-57.53c-7.5-5.76-20.48-1.4-24.63,6.46-5,9.54-1.55,18.48,6.46,24.63l74.87,57.53V367.2l-72.72,52.59-10.36,7.49c-7.61,5.5-12.08,15.91-6.46,24.63,4.86,7.54,16.47,12.36,24.63,6.46Z" transform="translate(-271.87 -148)"/></g></svg>