<svg xmlns="http://www.w3.org/2000/svg" xmlns:xlink="http://www.w3.org/1999/xlink" viewBox="0 0 409 409"><defs><style>.cls-1{fill:url(#linear-gradient);}.cls-2,.cls-3{fill:none;stroke:#fff;stroke-miterlimit:10;}.cls-2{stroke-width:20px;}</style><linearGradient id="linear-gradient" y1="204.5" x2="409" y2="204.5" gradientUnits="userSpaceOnUse"><stop offset="0" stop-color="#054faa"/><stop offset="1" stop-color="#0f80ea"/></linearGradient></defs><title>issue</title><g id="Layer_1" data-name="Layer 1"><circle class="cls-1" cx="204.5" cy="204.5" r="204.5"/></g><g id="Layer_2" data-name="Layer 2"><path class="cls-2" d="M403.88,270.67l48.5-1.17c-.81-2-7.65-20.05,2.85-37,1.32-2.12,10.73-16.65,29-18.43a38.55,38.55,0,0,1,35.18,16.45,39.2,39.2,0,0,1,2,41l40.51-.83.49,46.83c2.77-1.67,16.5-9.55,33-5a37.71,37.71,0,0,1,20,13c9.27,12,7.54,25.73,7,30s-1.57,12.52-8,20c-6.73,7.83-15.27,10.08-19,11-16.64,4.12-30.58-3.9-34-6l.51,49.5h-158l-1.5-46.5c3.86,1.95,14.31,6.57,27,4,14.3-2.89,30.78-14.78,32-33,1.29-19.3-15.25-35-32-38-12.24-2.17-22.27,2.87-26,5Z" transform="translate(-289.12 -135)"/><path class="cls-3" d="M284.5,184.5" transform="translate(-289.12 -135)"/></g></svg>