<svg xmlns="http://www.w3.org/2000/svg" xmlns:xlink="http://www.w3.org/1999/xlink" viewBox="0 0 2133.89 2460.27"><defs><style>.cls-1{fill:url(#linear-gradient);}.cls-11,.cls-12,.cls-13,.cls-2,.cls-25,.cls-26,.cls-27,.cls-28,.cls-3,.cls-4,.cls-5{fill:none;}.cls-10,.cls-11,.cls-12,.cls-13,.cls-2,.cls-22,.cls-25,.cls-26,.cls-27,.cls-28,.cls-3,.cls-4,.cls-5,.cls-6,.cls-7,.cls-8,.cls-9{stroke-miterlimit:10;}.cls-2{stroke:url(#linear-gradient-2);}.cls-22,.cls-26,.cls-27,.cls-28,.cls-3,.cls-4{stroke-width:2px;}.cls-3{stroke:url(#linear-gradient-3);}.cls-4{stroke:url(#linear-gradient-4);}.cls-5{stroke:url(#linear-gradient-5);}.cls-10,.cls-6,.cls-7,.cls-8,.cls-9{fill:#fff;}.cls-10,.cls-11,.cls-12,.cls-13,.cls-6,.cls-7,.cls-8,.cls-9{stroke-linecap:round;stroke-width:20px;}.cls-6{stroke:url(#linear-gradient-6);}.cls-7{stroke:url(#linear-gradient-7);}.cls-8{stroke:url(#linear-gradient-8);}.cls-9{stroke:url(#linear-gradient-9);}.cls-10{stroke:url(#linear-gradient-10);}.cls-11{stroke:url(#linear-gradient-11);}.cls-12{stroke:url(#linear-gradient-12);}.cls-13{stroke:url(#linear-gradient-13);}.cls-14{fill:url(#linear-gradient-14);}.cls-15{fill:url(#linear-gradient-15);}.cls-16{fill:url(#linear-gradient-16);}.cls-17{fill:url(#linear-gradient-17);}.cls-18{fill:url(#linear-gradient-18);}.cls-19{fill:url(#linear-gradient-19);}.cls-20{fill:url(#linear-gradient-20);}.cls-21{fill:url(#linear-gradient-21);}.cls-22{stroke:#fff;fill:url(#linear-gradient-22);}.cls-23{fill:url(#linear-gradient-23);}.cls-24{fill:url(#linear-gradient-24);}.cls-25{stroke:url(#linear-gradient-25);}.cls-26{stroke:url(#linear-gradient-27);}.cls-27{stroke:url(#linear-gradient-28);}.cls-28{stroke:url(#linear-gradient-29);}</style><linearGradient id="linear-gradient" x1="758.15" y1="3594.61" x2="-188.45" y2="2752.58" gradientTransform="matrix(-0.81, -0.66, 0.64, -0.8, 584.32, 4423.15)" gradientUnits="userSpaceOnUse"><stop offset="0" stop-color="#f3f8fe"/><stop offset="0.34" stop-color="#ecf4fc"/><stop offset="0.81" stop-color="#dae9f7"/><stop offset="1" stop-color="#d1e3f4"/></linearGradient><linearGradient id="linear-gradient-2" x1="1294.08" y1="1789.01" x2="3244.78" y2="1789.01" gradientTransform="translate(-30.87 7.78) rotate(-0.8)" gradientUnits="userSpaceOnUse"><stop offset="0" stop-color="#bfbfbf"/><stop offset="0.25" stop-color="#c1c3c6"/><stop offset="0.61" stop-color="#c7d0d8"/><stop offset="1" stop-color="#d1e3f4"/></linearGradient><linearGradient id="linear-gradient-3" x1="1943" y1="2886" x2="1943" y2="2886" gradientUnits="userSpaceOnUse"><stop offset="0" stop-color="#60aafb"/><stop offset="1" stop-color="#1562ae"/></linearGradient><linearGradient id="linear-gradient-4" x1="1664.61" y1="2250.24" x2="2459.89" y2="2250.24" xlink:href="#linear-gradient-3"/><linearGradient id="linear-gradient-5" x1="170.78" y1="1439.34" x2="1216" y2="1439.34" xlink:href="#linear-gradient-3"/><linearGradient id="linear-gradient-6" x1="483.88" y1="1458.45" x2="641.5" y2="1458.45" gradientUnits="userSpaceOnUse"><stop offset="0" stop-color="#0f80ea"/><stop offset="1" stop-color="#054faa"/></linearGradient><linearGradient id="linear-gradient-7" x1="759.11" y1="1458.45" x2="916.73" y2="1458.45" xlink:href="#linear-gradient-6"/><linearGradient id="linear-gradient-8" x1="1918.47" y1="2260.29" x2="2241" y2="2260.29" xlink:href="#linear-gradient-6"/><linearGradient id="linear-gradient-9" x1="581.23" y1="1812.02" x2="843.88" y2="1812.02" xlink:href="#linear-gradient-6"/><linearGradient id="linear-gradient-10" x1="1644.24" y1="2260.29" x2="1969.1" y2="2260.29" xlink:href="#linear-gradient-6"/><linearGradient id="linear-gradient-11" x1="616.73" y1="1810.39" x2="672.42" y2="1810.39" xlink:href="#linear-gradient-6"/><linearGradient id="linear-gradient-12" x1="749.5" y1="1810.51" x2="804.33" y2="1810.51" xlink:href="#linear-gradient-6"/><linearGradient id="linear-gradient-13" x1="672.57" y1="1809.47" x2="752.08" y2="1809.47" xlink:href="#linear-gradient-6"/><linearGradient id="linear-gradient-14" x1="1544.11" y1="1521.48" x2="1735" y2="1521.48" xlink:href="#linear-gradient-3"/><linearGradient id="linear-gradient-15" x1="1594.97" y1="1521.12" x2="1683.92" y2="1521.12" gradientTransform="translate(2.48 -2.19) rotate(0.09)" xlink:href="#linear-gradient-3"/><linearGradient id="linear-gradient-16" x1="2439.11" y1="1916.63" x2="2562" y2="1916.63" xlink:href="#linear-gradient-3"/><linearGradient id="linear-gradient-17" x1="2467.77" y1="1914.08" x2="2535.72" y2="1914.08" xlink:href="#linear-gradient-3"/><linearGradient id="linear-gradient-18" x1="2296.11" y1="2616.96" x2="2504.04" y2="2616.96" xlink:href="#linear-gradient-3"/><linearGradient id="linear-gradient-19" x1="2342.13" y1="2627.92" x2="2457.83" y2="2627.92" xlink:href="#linear-gradient-3"/><linearGradient id="linear-gradient-20" x1="1848.11" y1="2983.48" x2="2037" y2="2983.48" xlink:href="#linear-gradient-3"/><linearGradient id="linear-gradient-21" x1="661.75" y1="2372.5" x2="736.39" y2="2372.5" xlink:href="#linear-gradient-3"/><linearGradient id="linear-gradient-22" x1="1921.08" y1="2945.72" x2="1959.99" y2="2945.72" xlink:href="#linear-gradient-3"/><linearGradient id="linear-gradient-23" x1="1241.11" y1="2290.93" x2="1489.11" y2="2290.93" xlink:href="#linear-gradient-3"/><linearGradient id="linear-gradient-24" x1="1313.99" y1="2290.99" x2="1412.06" y2="2290.99" xlink:href="#linear-gradient-3"/><linearGradient id="linear-gradient-25" x1="332" y1="212" x2="332" y2="212" xlink:href="#linear-gradient-3"/><linearGradient id="linear-gradient-27" x1="1943.03" y1="2886.05" x2="1943.03" y2="2886.05" xlink:href="#linear-gradient-3"/><linearGradient id="linear-gradient-28" x1="1410.82" y1="2251.68" x2="2458.75" y2="2251.68" xlink:href="#linear-gradient-3"/><linearGradient id="linear-gradient-29" x1="123.25" y1="2030.86" x2="692.16" y2="2030.86" xlink:href="#linear-gradient-3"/></defs><title>methodologyIllustration</title><g id="Layer_1" data-name="Layer 1"><g id="Layer_8" data-name="Layer 8"><path class="cls-1" d="M2450.17,767.18C2643.77,584,2939.8,568.55,3149.1,724.09c225.47,167.55,295.06,492.46,149.76,743.11l-943.78,1191c-203,198.85-526.08,204.21-738.2,18.08-202.77-177.92-252.08-485.12-110.49-718.1Z" transform="translate(-1241.11 -617.66)"/><path class="cls-2" d="M2300.17,816.92c191.09-185.94,486.88-205.57,698.28-53,227.73,164.34,301.75,488.22,159.89,740.91L2230.9,2709.05c-200.27,201.71-523.24,211.66-737.89,28.56-205.17-175-258.68-481.49-120.28-716.46Z" transform="translate(-1241.11 -617.66)"/></g></g><g id="Layer_5" data-name="Layer 5"><g id="Layer_7" data-name="Layer 7"><path class="cls-3" d="M1943,2886" transform="translate(-1241.11 -617.66)"/><path class="cls-4" d="M1945,2888,1666,1613.93l793.5,333.57" transform="translate(-1241.11 -617.66)"/><line class="cls-5" x1="170.89" y1="1558.34" x2="1215.89" y2="1320.34"/></g><circle class="cls-6" cx="562.69" cy="1458.45" r="68.81"/><circle class="cls-7" cx="837.92" cy="1458.45" r="68.81"/><path class="cls-8" d="M2230.28,2298.11c-2-32.43-3.39-54-14-73.27-18.91-34.43-59-46.34-76.94-50.38l-44.88,87H2067l-47.63-87c-57.36,10-74.15,34.93-79.47,45.38q1.57,2.42,3,5c10.58,19.27,11.93,40.84,14,73.27q.27,4.28.43,8.35-2.49-.1-5-.1a122,122,0,0,0-23,2.18v.14a121.56,121.56,0,0,1,113.48,38.89H2230A367.69,367.69,0,0,0,2230.28,2298.11Z" transform="translate(-1241.11 -617.66)"/><g id="Layer_6" data-name="Layer 6"><circle class="cls-9" cx="712.55" cy="1812.02" r="121.33"/><path class="cls-10" d="M1953.67,2306.35q2.52,0,5,.1-.16-4.07-.43-8.35c-2-32.43-3.39-54-14-73.27-18.91-34.43-59-46.34-76.94-50.38l-44.88,87H1795l-47.63-87c-58.14,10.18-74.6,35.61-79.69,45.8-4.3,8.62-5.53,16.48-9.16,69.61-1.58,23.19-2.79,42.87-3.66,57.7h207.69A121.07,121.07,0,0,1,1953.67,2306.35Z" transform="translate(-1241.11 -617.66)"/><polyline class="cls-11" points="662.42 1782.01 631.52 1809.02 662.42 1838.78"/><polyline class="cls-12" points="759.5 1782.12 789.72 1809.14 759.5 1838.91"/><line class="cls-13" x1="742.08" y1="1749.96" x2="682.57" y2="1868.99"/><path class="cls-14" d="M1639.56,1426a95.44,95.44,0,1,0,95.44,95.44A95.44,95.44,0,0,0,1639.56,1426Zm-.91,170.89a76.36,76.36,0,1,1,76.36-76.36A76.36,76.36,0,0,1,1638.65,1596.93Z" transform="translate(-1241.11 -617.66)"/><path class="cls-15" d="M1640.42,1475.19a63,63,0,0,0,42.7,22.15,63.31,63.31,0,0,1-5.76,39.16c-11.46,22.52-32.78,29.89-37.09,31.28-5.16-1.85-25.14-9.68-37-31.4a68.34,68.34,0,0,1-7.77-39.9,57.72,57.72,0,0,0,44.9-21.3Z" transform="translate(-1241.11 -617.66)"/><path class="cls-16" d="M2500.56,1855.19a61.44,61.44,0,1,0,61.44,61.44A61.44,61.44,0,0,0,2500.56,1855.19Zm-.59,110a49.16,49.16,0,1,1,49.16-49.16A49.16,49.16,0,0,1,2500,1965.2Z" transform="translate(-1241.11 -617.66)"/><path class="cls-17" d="M2479.69,1935c-7.22-1-12.31-7.3-11.89-13.87a13.44,13.44,0,0,1,10.41-11.89,15.7,15.7,0,0,1,29.73-7.43c.44-.15,6.92-2.3,12.39,2a13.55,13.55,0,0,1,5,10.41,10.41,10.41,0,1,1,0,20.81Z" transform="translate(-1241.11 -617.66)"/><path class="cls-18" d="M2400.08,2513a104,104,0,1,0,104,104A104,104,0,0,0,2400.08,2513Zm-1,186.14a83.17,83.17,0,1,1,83.17-83.17A83.17,83.17,0,0,1,2399.09,2699.14Z" transform="translate(-1241.11 -617.66)"/><path class="cls-19" d="M2342.13,2612.74l115.7-38.47-56.34,107.32-26.16-33.41,53.32-47.58-58.35,42.52Z" transform="translate(-1241.11 -617.66)"/><path class="cls-20" d="M1942.56,2889a94.44,94.44,0,1,0,94.44,94.44A94.44,94.44,0,0,0,1942.56,2889Zm-.9,169.1a75.56,75.56,0,1,1,75.56-75.56A75.56,75.56,0,0,1,1941.66,3058.14Z" transform="translate(-1241.11 -617.66)"/><rect class="cls-21" x="661.75" y="2328.09" width="74.64" height="88.83" rx="12" ry="12"/><path class="cls-22" d="M1921.16,2955.11h38.79a9.92,9.92,0,0,0-2.26-7.24,8.48,8.48,0,0,0-6.32-2.9,10.31,10.31,0,0,0-1.8-4.34c-3.89-5.23-13.37-5.9-18-1a11.16,11.16,0,0,0-2.71,5.31,8.59,8.59,0,0,0-6.32,3.86A9.65,9.65,0,0,0,1921.16,2955.11Z" transform="translate(-1241.11 -617.66)"/><path class="cls-23" d="M1365.11,2166.93a124,124,0,1,0,124,124A124,124,0,0,0,1365.11,2166.93Zm-1.18,222a99.2,99.2,0,1,1,99.2-99.2A99.2,99.2,0,0,1,1363.93,2388.95Z" transform="translate(-1241.11 -617.66)"/><path class="cls-24" d="M1411,2262c-3.88-17.42-20.2-41.07-46.1-42-27.49-1-45.81,24.34-49.9,43a43.26,43.26,0,0,0-1,10c.54,34.21,38.94,76.4,50.9,89,11.36-12.92,45.49-53.6,47.1-88A44.92,44.92,0,0,0,1411,2262Zm-47.5,35a22.5,22.5,0,1,1,22.5-22.5A22.5,22.5,0,0,1,1363.5,2297Z" transform="translate(-1241.11 -617.66)"/><path class="cls-25" d="M332,212" transform="translate(-1241.11 -617.66)"/><path class="cls-3" d="M1943,2886" transform="translate(-1241.11 -617.66)"/><path class="cls-26" d="M1943,2886.05" transform="translate(-1241.11 -617.66)"/><path class="cls-27" d="M2426,2513l31.5-567.5-501.21,945.61,362.35-209.53-906.58-505.45L1625,1610" transform="translate(-1241.11 -617.66)"/><line class="cls-28" x1="123.89" y1="1797.34" x2="691.53" y2="2264.38"/></g></g></svg>